<svg width="186" height="44" viewBox="0 0 186 44" fill="none" xmlns="http://www.w3.org/2000/svg">
<path d="M67.9602 15.3323C68.5914 14.3644 69.3804 13.607 70.3272 13.0599C71.274 12.4919 72.326 12.2078 73.4832 12.2078V17.9202H71.9999C70.6533 17.9202 69.6434 18.2147 68.9701 18.8039C68.2968 19.3719 67.9602 20.3819 67.9602 21.8336V30.0077H62.5634V12.3972H67.9602V15.3323ZM82.1853 30.2601C80.4601 30.2601 78.9031 29.8919 77.5145 29.1555C76.1469 28.4191 75.0633 27.3671 74.2638 25.9995C73.4853 24.6319 73.0961 23.0329 73.0961 21.2024C73.0961 19.393 73.4958 17.8045 74.2953 16.4369C75.0949 15.0482 76.1889 13.9857 77.5776 13.2493C78.9662 12.5129 80.5232 12.1447 82.2485 12.1447C83.9737 12.1447 85.5307 12.5129 86.9193 13.2493C88.308 13.9857 89.4021 15.0482 90.2016 16.4369C91.0011 17.8045 91.4009 19.393 91.4009 21.2024C91.4009 23.0119 90.9906 24.6109 90.17 25.9995C89.3705 27.3671 88.2659 28.4191 86.8562 29.1555C85.4676 29.8919 83.9106 30.2601 82.1853 30.2601ZM82.1853 25.5893C83.2163 25.5893 84.0895 25.2105 84.8048 24.4531C85.5412 23.6957 85.9094 22.6121 85.9094 21.2024C85.9094 19.7927 85.5517 18.7092 84.8364 17.9517C84.1421 17.1943 83.2794 16.8156 82.2485 16.8156C81.1965 16.8156 80.3233 17.1943 79.629 17.9517C78.9347 18.6881 78.5875 19.7717 78.5875 21.2024C78.5875 22.6121 78.9241 23.6957 79.5974 24.4531C80.2917 25.2105 81.1544 25.5893 82.1853 25.5893ZM91.2973 21.2024C91.2973 19.3719 91.6655 17.7729 92.4019 16.4053C93.1593 15.0377 94.2008 13.9857 95.5263 13.2493C96.8729 12.5129 98.4088 12.1447 100.134 12.1447C102.343 12.1447 104.184 12.7233 105.657 13.8805C107.151 15.0377 108.129 16.6683 108.592 18.7723H102.848C102.364 17.4257 101.428 16.7525 100.039 16.7525C99.0505 16.7525 98.2615 17.1417 97.6724 17.9202C97.0833 18.6776 96.7887 19.7717 96.7887 21.2024C96.7887 22.6331 97.0833 23.7377 97.6724 24.5162C98.2615 25.2737 99.0505 25.6524 100.039 25.6524C101.428 25.6524 102.364 24.9791 102.848 23.6325H108.592C108.129 25.6945 107.151 27.3145 105.657 28.4928C104.163 29.671 102.322 30.2601 100.134 30.2601C98.4088 30.2601 96.8729 29.8919 95.5263 29.1555C94.2008 28.4191 93.1593 27.3671 92.4019 25.9995C91.6655 24.6319 91.2973 23.0329 91.2973 21.2024ZM120.347 30.0077L114.982 22.6226V30.0077H109.585V6.65326H114.982V19.5613L120.316 12.3972H126.975L119.653 21.234L127.038 30.0077H120.347ZM143.802 20.9184C143.802 21.4233 143.77 21.9493 143.707 22.4964H131.493C131.577 23.5905 131.924 24.4321 132.535 25.0212C133.166 25.5893 133.934 25.8733 134.839 25.8733C136.185 25.8733 137.121 25.3052 137.647 24.1691H143.391C143.097 25.3263 142.56 26.3677 141.782 27.2935C141.024 28.2193 140.067 28.9451 138.91 29.4711C137.753 29.9971 136.459 30.2601 135.028 30.2601C133.303 30.2601 131.767 29.8919 130.42 29.1555C129.074 28.4191 128.022 27.3671 127.264 25.9995C126.507 24.6319 126.128 23.0329 126.128 21.2024C126.128 19.3719 126.496 17.7729 127.233 16.4053C127.99 15.0377 129.042 13.9857 130.389 13.2493C131.735 12.5129 133.282 12.1447 135.028 12.1447C136.732 12.1447 138.247 12.5024 139.573 13.2177C140.898 13.9331 141.929 14.9535 142.665 16.2791C143.423 17.6046 143.802 19.151 143.802 20.9184ZM138.279 19.4982C138.279 18.5724 137.963 17.836 137.332 17.289C136.701 16.7419 135.912 16.4684 134.965 16.4684C134.06 16.4684 133.292 16.7314 132.661 17.2574C132.051 17.7834 131.672 18.5303 131.525 19.4982H138.279ZM154.57 25.4315V30.0077H151.824C149.868 30.0077 148.342 29.5343 147.248 28.5875C146.154 27.6196 145.607 26.0521 145.607 23.885V16.8787H143.461V12.3972H145.607V8.10502H151.004V12.3972H154.539V16.8787H151.004V23.9481C151.004 24.4741 151.13 24.8529 151.383 25.0843C151.635 25.3157 152.056 25.4315 152.645 25.4315H154.57ZM161.623 21.234C161.623 19.4877 161.981 17.9307 162.696 16.5631C163.433 15.1955 164.411 14.133 165.631 13.3755C166.873 12.5971 168.219 12.2078 169.671 12.2078C170.786 12.2078 171.785 12.4077 172.669 12.8075C173.553 13.1862 174.268 13.7227 174.815 14.417V12.3972H180.212V38.4026H174.815V27.7985C174.205 28.5349 173.458 29.124 172.574 29.5658C171.712 30.0077 170.723 30.2286 169.608 30.2286C168.177 30.2286 166.852 29.8499 165.631 29.0924C164.411 28.335 163.433 27.2725 162.696 25.9049C161.981 24.5373 161.623 22.9803 161.623 21.234ZM174.815 21.2024C174.815 20.2556 174.626 19.4666 174.247 18.8354C173.889 18.1832 173.416 17.6993 172.827 17.3837C172.238 17.047 171.617 16.8787 170.965 16.8787C170.334 16.8787 169.723 17.047 169.134 17.3837C168.545 17.6993 168.061 18.1832 167.683 18.8354C167.304 19.4877 167.115 20.2872 167.115 21.234C167.115 22.1808 167.304 22.9803 167.683 23.6325C168.061 24.2637 168.545 24.7477 169.134 25.0843C169.723 25.3999 170.334 25.5577 170.965 25.5577C171.596 25.5577 172.206 25.3999 172.795 25.0843C173.405 24.7477 173.889 24.2532 174.247 23.601C174.626 22.9487 174.815 22.1492 174.815 21.2024Z" fill="#FAFAFA"/>
<path d="M158.207 30.2601C157.261 30.2601 156.482 29.9866 155.872 29.4396C155.283 28.8715 154.988 28.1772 154.988 27.3566C154.988 26.515 155.283 25.8102 155.872 25.2421C156.482 24.674 157.261 24.39 158.207 24.39C159.133 24.39 159.891 24.674 160.48 25.2421C161.09 25.8102 161.395 26.515 161.395 27.3566C161.395 28.1772 161.09 28.8715 160.48 29.4396C159.891 29.9866 159.133 30.2601 158.207 30.2601Z" fill="url(#paint0_linear)"/>
<rect width="48.8189" height="44" rx="7.88976" fill="url(#paint1_linear)"/>
<g filter="url(#filter0_di)">
<path d="M37.0917 32.5372H32.6719C32.4985 32.5372 32.3504 32.3357 32.3313 32.1633C32.0862 29.9498 29.6312 28.331 27.4127 28.5267C27.3862 28.5291 27.3596 28.5318 27.333 28.5349C25.7301 28.7221 24.3436 29.8303 22.7391 30.0038C21.5038 30.1373 20.448 30.0709 19.1997 29.8316C18.3887 29.6761 17.599 29.4131 16.8575 29.0495C14.7087 27.9957 13.5721 26.9273 12.5318 25.3065C11.9086 24.3354 11.457 23.2494 11.3061 22.1055C11.2032 21.3252 11.2071 20.6224 11.2917 19.8653C11.4493 18.4565 11.952 17.0948 12.7548 15.9264C13.8353 14.3541 15.0167 13.3827 16.9617 12.4577C17.6362 12.1368 18.3496 11.8997 19.0806 11.7464C21.4386 11.252 22.9054 11.3693 25.1445 12.0018C26.3759 12.3497 27.7156 13.1033 28.8447 14.0853C31.1561 16.0955 31.399 19.3999 31.4613 22.4625C31.4665 22.7163 31.2367 22.9104 30.9863 22.8684C29.3984 22.6017 28.2901 22.579 26.7382 22.8071C26.3771 22.8601 26.0895 22.4758 26.1958 22.1267C26.2233 22.0361 26.2473 21.9465 26.2679 21.8578C26.8318 19.4262 24.9267 16.723 22.4456 16.4498C20.9199 16.2818 19.4001 16.8293 18.2814 17.9549C17.6078 18.5272 17.2453 19.4357 17.1448 20.3966C16.8976 22.7594 18.9596 24.7984 21.3154 25.105C22.0975 25.2068 22.8233 25.1081 23.5889 24.8147C24.8866 24.3173 26.195 23.7527 27.5831 23.8187C32.8478 24.069 36.5614 26.0576 37.5188 32.0408C37.5606 32.302 37.3562 32.5372 37.0917 32.5372Z" fill="#FAFAFA"/>
</g>
<defs>
<filter id="filter0_di" x="9.59615" y="11.44" width="29.5605" height="24.362" filterUnits="userSpaceOnUse" color-interpolation-filters="sRGB">
<feFlood flood-opacity="0" result="BackgroundImageFix"/>
<feColorMatrix in="SourceAlpha" type="matrix" values="0 0 0 0 0 0 0 0 0 0 0 0 0 0 0 0 0 0 127 0"/>
<feOffset dy="1.63237"/>
<feGaussianBlur stdDeviation="0.816183"/>
<feColorMatrix type="matrix" values="0 0 0 0 0 0 0 0 0 0 0 0 0 0 0 0 0 0 0.07 0"/>
<feBlend mode="normal" in2="BackgroundImageFix" result="effect1_dropShadow"/>
<feBlend mode="normal" in="SourceGraphic" in2="effect1_dropShadow" result="shape"/>
<feColorMatrix in="SourceAlpha" type="matrix" values="0 0 0 0 0 0 0 0 0 0 0 0 0 0 0 0 0 0 127 0" result="hardAlpha"/>
<feOffset dy="1.63237"/>
<feGaussianBlur stdDeviation="1.02023"/>
<feComposite in2="hardAlpha" operator="arithmetic" k2="-1" k3="1"/>
<feColorMatrix type="matrix" values="0 0 0 0 0.219608 0 0 0 0 0.533333 0 0 0 0 1 0 0 0 0.13 0"/>
<feBlend mode="normal" in2="shape" result="effect2_innerShadow"/>
</filter>
<linearGradient id="paint0_linear" x1="210.691" y1="-59.2554" x2="200.177" y2="54.5632" gradientUnits="userSpaceOnUse">
<stop stop-color="#5498FF"/>
<stop offset="0.515625" stop-color="#428EFF"/>
<stop offset="1" stop-color="#297FFF"/>
</linearGradient>
<linearGradient id="paint1_linear" x1="58.4318" y1="-66.5618" x2="28.2829" y2="50.384" gradientUnits="userSpaceOnUse">
<stop stop-color="#5498FF"/>
<stop offset="0.515625" stop-color="#428EFF"/>
<stop offset="1" stop-color="#297FFF"/>
</linearGradient>
</defs>
</svg>
